<svg viewBox="0 0 512 512" xmlns="http://www.w3.org/2000/svg">
  <path fill="#b55088" d="M0 0h512v512H0z"/>
  <path fill="#fff" d="m132.6 170-9.6.3a1022 1022 0 0 0-39.5 1.2c-11.2.9-22.6 1.8-33.7 4-3.4.7-7 1.4-10.3 2.9-2.6 1-5.4 2.5-8.1 3.7a42.8 42.8 0 0 1-11.8 4.1c-3 .6-5.9.8-8.8 1.3-.9.2-1.6.9-1.7 1.7-.8 3-.8 6.2-1 9.2a285 285 0 0 0 0 16.9c.1 1.4 0 3 1 4.2 1.3 1 3.2 1.1 4.8 1.4 4 .5 8 .8 11.8 1.9 2 .7 3 2.8 3.2 4.7.8 4.5 1 9 1.2 13.6l.8 17c.4 5.9.9 11.7 1.6 17.4a137.8 137.8 0 0 0 3.9 19 46.4 46.4 0 0 0 8.6 15.7 80.6 80.6 0 0 0 48.2 28.6 157 157 0 0 0 28.2 2.9 265 265 0 0 0 52.6-3.8 189.7 189.7 0 0 0 10.5-2.5l2.3-.7a74.2 74.2 0 0 0 43.4-35.3c1-1.8 1.9-3.9 2.5-5.6 2.5-6 3.6-12.5 5-18.8 1.4-6.7 2.5-13.5 3.9-20.2.9-4.2 1.8-8.4 3.8-12.1 1.2-2.4 3.6-3.7 5.9-5 2-1 4.5-2 6.8-1.1 3 .8 5.7 2.3 7.8 4.4 1.6 1.8 2.3 4 3 6.2 2.4 7.5 3.4 15.2 4.9 22.9 1.5 7.8 3 15.8 5.8 23.3a66.4 66.4 0 0 0 8.9 15.8 74.7 74.7 0 0 0 30.8 23.3l1.8.7c4.2 1.6 8.7 2.8 13 3.8a201.8 201.8 0 0 0 32 4.3 247.9 247.9 0 0 0 45.7-1.3c7.9-1.1 15.9-2.8 23.3-5.8a75.2 75.2 0 0 0 36.8-30.6 53.8 53.8 0 0 0 6.4-17.7c2-10.1 2.8-20.4 3.5-30.7.5-7.3.7-14.6 1-21.9.3-2.7.3-5.5 1.4-8a4.8 4.8 0 0 1 3.8-2.9c4.3-1 8.7-1.1 13-1.9 1.2-.2 2.7-.7 3-2 .7-2.8.5-5.8.5-8.7-.2-6.1-.2-12.1-.7-18.2-.2-1.1 0-2.4-.7-3.3-1-.8-2.6-.8-4-1-4.2-.6-8.6-.9-12.6-2.7-5.6-2.4-11-5.7-16.9-7.4a248.7 248.7 0 0 0-35.7-5.3 470.1 470.1 0 0 0-29-1.5 891.5 891.5 0 0 0-70.4.7c-12.3.7-24.7 1.5-37 3-3.8.6-7.9 1.2-11.7 2.4-3.5 1-6.7 3.1-9.2 5.7-2.3 2.3-4.5 4.8-7.2 6.6-1.7.8-3.6.7-5.4 1-5.8.2-11.5.3-17.2-.1-1.5-.2-3.2-.3-4.4-1.4-3.7-2.9-6.7-6.5-10.4-9.3-3.7-2.7-8.3-3.5-12.7-4.2-10.1-1.5-20.3-2.3-30.4-3-6.1-.4-12.4-1-18.4-1.1-9.7-.3-19.3-.4-28.9-.5-3-.2-6-.2-9-.2z"/>
  <path fill="#000" d="M111.2 343.1c-23.1-1.7-38.6-6.7-52.6-17.1-9.4-7-17.1-15.6-21.3-24-5.3-10.4-7.8-26.2-9-57-.7-16.3-1.2-19.3-3-20.3-.7-.3-4.4-1-8.2-1.4-11.4-1.3-11.1-1-11-15.8 0-6.1.2-13.1.4-15.5.6-5.2 1.6-6.2 5.8-6.8 9.8-1.2 11-1.5 18.9-5.2 10.5-5 10-4.7 18.2-6.4 8.6-1.8 18.4-3 36.3-4.3 16.4-1.3 72.6-1.5 91.4-.3 25.5 1.6 40.8 3.1 48 4.9a24 24 0 0 1 13 7.8 56 56 0 0 0 6.3 5.5c2 1.1 21.9 1 24-.2.9-.4 3.5-2.8 5.8-5.2 4.6-4.8 8-6.7 14.6-8.2 14.4-3.3 57-5.8 95-5.6 34.8.2 63.2 2.2 80.4 5.8a59.3 59.3 0 0 1 17.6 6.4c7 3.5 8.4 4 15.2 4.7 6.3.7 7.5 1.2 8.4 3.4.4 1 .8 7.9 1 15.8.4 18.5.8 17.8-11 19.2-3.8.4-7.5 1-8.1 1.4-1.9 1-2.4 3.7-2.8 14.7-.8 22.9-2.7 41.8-5.3 51.6-5.7 22-26.5 41-52.4 48-28.2 7.7-79.3 5.9-105.5-3.6-15-5.5-28.7-16-36.8-28.4-7.3-11.2-9.3-17.6-14.4-46.2a59 59 0 0 0-5-17.6 15 15 0 0 0-8.9-5 15 15 0 0 0-8.8 5 59 59 0 0 0-5 17.6c-2.6 14.5-4.9 25.1-6.4 30a72.7 72.7 0 0 1-45.4 44.7c-18.6 6.7-50.7 9.7-79.4 7.6zm35.4-13.4c6.8-.5 12-1.2 20-3a71.3 71.3 0 0 0 19.8-6.4c7.6-3.4 9.7-4.7 15-9.1 14.5-12 22.7-28.5 27.5-55.6 3-16.8 4.2-34.3 2.7-42a32.6 32.6 0 0 0-13.5-20.8c-9.3-6.5-24.8-10.2-48.9-11.5-16.8-.9-61.7-.3-75.3 1-26.6 2.5-41.7 9.6-47.6 22.4-3 6.6-3.4 10.2-3.4 29.4 0 35 3.4 52.3 13.1 66.9 6 9 12 14.1 23 19.3 7.2 3.5 9.3 4.3 18.7 6.4a158.6 158.6 0 0 0 49 3zm-14-58.6c-9.9-5.2-13.5-24.4-7-37 2.6-5.1 7.3-8.7 11.4-8.7 8.2 0 14.9 10.5 14.9 23.4 0 15.9-10 27.3-19.4 22.3zm262.8 58.6c6.5-.5 11.6-1.3 19.4-3a66.5 66.5 0 0 0 18.7-6.4c11-5.3 17-10.4 23-19.3 9.7-14.6 13-32 13-67 0-19.1-.3-22.7-3.3-29.3-6-12.8-21.1-20-48-22.4-14-1.3-57-1.9-74.3-1-41.3 2.2-59 11.3-63.1 32.5-1 4.8-.3 22.6 1.2 32.8 5 33.4 13.1 51.5 29 64.6a53 53 0 0 0 15.1 9.2c7.9 3.6 10 4.3 19.7 6.4a174.6 174.6 0 0 0 37.3 3.7l12.3-.8zm-25.2-58.9c-11.4-6.8-13-31.4-2.8-41.7 9.9-9.8 22.6 1 22.6 19.4 0 16.7-10.1 28.1-19.8 22.3z"/>
</svg>
