<svg xmlns="http://www.w3.org/2000/svg">
  <!-- ui -->
  <symbol id="icon-moon" viewBox="0 0 24 24">
    <path stroke-linecap="round" stroke-linejoin="round" stroke-width="1.5" d="M21.752 15.002A9.718 9.718 0 0118 15.75c-5.385 0-9.75-4.365-9.75-9.75 0-1.33.266-2.597.748-3.752A9.753 9.753 0 003 11.25C3 16.635 7.365 21 12.75 21a9.753 9.753 0 009.002-5.998z" />
  </symbol>
  <symbol id="icon-sun" viewBox="0 0 24 24">
    <path stroke-linecap="round" stroke-linejoin="round" stroke-width="1.5" d="M12 3v2.25m6.364.386l-1.591 1.591M21 12h-2.25m-.386 6.364l-1.591-1.591M12 18.75V21m-4.773-4.227l-1.591 1.591M5.25 12H3m4.227-4.773L5.636 5.636M15.75 12a3.75 3.75 0 11-7.5 0 3.75 3.75 0 017.5 0z" />
  </symbol>
  <!-- social media -->
  <symbol id="social-cohost" viewBox="0 0 576 512">
    <path clip-rule="evenodd" fill-rule="evenodd" d="M450.7 383.6a437.6 437.6 0 0 1-115.4 48.2c-48.4 13-94 18.2-136.8 15.6-42.8-2.6-79.3-13.7-109.5-33.5-30.2-19.8-50.5-49.3-61-88.5-10.6-39.4-7.7-75.2 8.5-107.3 16.3-32.1 42.3-59.8 78.2-83.3 35.9-23.4 78-41.6 126.4-54.6a429.6 429.6 0 0 1 136.3-15.6A242 242 0 0 1 455 81.2a184.3 184.3 0 0 1 31.8 16.6c30.2 19.6 50.6 49.1 61.1 88.3 10.5 39.2 7.6 74.9-8.7 107.2-2.3 4.5-4.8 8.9-7.4 13.3a48.6 48.6 0 0 0-11.3-22.1 68.5 68.5 0 0 0-9.3-8.5c-7-5.3-15.3-9.5-24.9-12.7a152.2 152.2 0 0 0-47.7-7.1 153 153 0 0 0-47.9 7 76 76 0 0 0-34.1 21.2 51.6 51.6 0 0 0-12.7 35.7c0 14.3 4.2 26.1 12.7 35.6a77 77 0 0 0 34.1 21.4 150 150 0 0 0 47.9 7.2l12.1-.7zm-152.6-25.4a58.5 58.5 0 0 1-17.7 11.4 167.4 167.4 0 0 1-68.9 14.4c-12 0-23.7-1.2-35.2-3.5-11.5-2.3-21.9-6-31.2-11.1a62.7 62.7 0 0 1-22.2-19.8 52.1 52.1 0 0 1-8.3-29.7c0-11.8 2.8-21.8 8.3-30a60.6 60.6 0 0 1 22.2-19.7c9.3-5 19.7-8.6 31.2-10.8a186.7 186.7 0 0 1 73.4.3c11.7 2.4 21.7 5.6 30 9.6 8.4 4 14.4 8.2 18.2 12.7l-31.3 20.6c-4.6-5-11.5-9-20.8-11.9a134 134 0 0 0-53.7-3c-6.6 1-12.7 2.8-18.3 5.2-5.5 2.4-10 5.9-13.4 10.3-3.4 4.4-5.1 10-5.1 16.8 0 6.7 1.7 12.2 5.1 16.6 3.4 4.4 7.9 7.8 13.4 10.4a65 65 0 0 0 18.3 5.4c6.6 1.1 13.2 1.6 19.8 1.6 13.1 0 24.4-1.6 34-4.9 9.6-3.3 16.3-7 20.3-11.3l31.9 20.4zm140.5-4.8c17.1 0 30.3-3.1 39.6-9.2a27.9 27.9 0 0 0 14.1-24.4c0-10.4-4.7-18.5-14.1-24.4a74.5 74.5 0 0 0-39.6-8.9c-17 0-30.3 3-39.8 8.9a27.5 27.5 0 0 0-14.3 24.4c0 10.3 4.8 18.4 14.3 24.5 9.4 6.1 22.7 9.1 39.8 9.1z"/>
  </symbol>
  <symbol id="social-email" viewBox="0 0 512 512">
    <path d="M48 64a48 48 0 0 0-28.8 86.4l217.6 163.2c11.4 8.5 27 8.5 38.4 0l217.6-163.2A48 48 0 0 0 464 64H48zM0 176v208a64 64 0 0 0 64 64h384a64 64 0 0 0 64-64V176L294.4 339.2a63.9 63.9 0 0 1-76.8 0L0 176z"/>
  </symbol>
  <symbol id="social-github" viewBox="0 0 496 512">
    <path d="M165.9 397.4c0 2-2.3 3.6-5.2 3.6-3.3.3-5.6-1.3-5.6-3.6 0-2 2.3-3.6 5.2-3.6 3-.3 5.6 1.3 5.6 3.6zm-31.1-4.5c-.7 2 1.3 4.3 4.3 4.9 2.6 1 5.6 0 6.2-2s-1.3-4.3-4.3-5.2c-2.6-.7-5.5.3-6.2 2.3zm44.2-1.7c-2.9.7-4.9 2.6-4.6 4.9.3 2 2.9 3.3 5.9 2.6 2.9-.7 4.9-2.6 4.6-4.6-.3-1.9-3-3.2-5.9-2.9zM244.8 8C106.1 8 0 113.3 0 252a250.7 250.7 0 0 0 169.5 239.2c12.8 2.3 17.3-5.6 17.3-12.1 0-6.2-.3-40.4-.3-61.4 0 0-70 15-84.7-29.8 0 0-11.4-29.1-27.8-36.6 0 0-22.9-15.7 1.6-15.4 0 0 24.9 2 38.6 25.8 21.9 38.6 58.6 27.5 72.9 20.9 2.3-16 8.8-27.1 16-33.7-55.9-6.2-112.3-14.3-112.3-110.5 0-27.5 7.6-41.3 23.6-58.9a94.5 94.5 0 0 1 2.6-67.9c20.9-6.5 69 27 69 27a235 235 0 0 1 125.6 0s48.1-33.6 69-27a94.4 94.4 0 0 1 2.6 67.9c16 17.7 25.8 31.5 25.8 58.9 0 96.5-58.9 104.2-114.8 110.5 9.2 7.9 17 22.9 17 46.4 0 33.7-.3 75.4-.3 83.6 0 6.5 4.6 14.4 17.3 12.1C428.2 457.8 496 362.9 496 252 496 113.3 383.5 8 244.8 8zM97.2 352.9c-1.3 1-1 3.3.7 5.2 1.6 1.6 3.9 2.3 5.2 1 1.3-1 1-3.3-.7-5.2-1.6-1.6-3.9-2.3-5.2-1zm-10.8-8.1c-.7 1.3.3 2.9 2.3 3.9 1.6 1 3.6.7 4.3-.7.7-1.3-.3-2.9-2.3-3.9-2-.6-3.6-.3-4.3.7zm32.4 35.6c-1.6 1.3-1 4.3 1.3 6.2 2.3 2.3 5.2 2.6 6.5 1 1.3-1.3.7-4.3-1.3-6.2-2.2-2.3-5.2-2.6-6.5-1zm-11.4-14.7c-1.6 1-1.6 3.6 0 5.9 1.6 2.3 4.3 3.3 5.6 2.3 1.6-1.3 1.6-3.9 0-6.2-1.4-2.3-4-3.3-5.6-2z"/>
  </symbol>
  <symbol id="social-instagram" viewBox="0 0 448 512">
    <path d="M224.1 141c-63.6 0-114.9 51.3-114.9 114.9s51.3 114.9 114.9 114.9S339 319.5 339 255.9 287.7 141 224.1 141zm0 189.6a74.8 74.8 0 1 1 .1-149.3 74.8 74.8 0 0 1-.1 149.3zm146.4-194.3a26.7 26.7 0 1 1-53.6 0 26.8 26.8 0 0 1 53.6 0zm76.1 27.2c-1.7-35.9-9.9-67.7-36.2-93.9-26.2-26.2-58-34.4-93.9-36.2-37-2.1-147.9-2.1-184.9 0-35.8 1.7-67.6 9.9-93.9 36.1s-34.4 58-36.2 93.9c-2.1 37-2.1 147.9 0 184.9 1.7 35.9 9.9 67.7 36.2 93.9s58 34.4 93.9 36.2c37 2.1 147.9 2.1 184.9 0 35.9-1.7 67.7-9.9 93.9-36.2 26.2-26.2 34.4-58 36.2-93.9 2.1-37 2.1-147.8 0-184.8zM398.8 388a75.6 75.6 0 0 1-42.6 42.6c-29.5 11.7-99.5 9-132.1 9s-102.7 2.6-132.1-9A75.6 75.6 0 0 1 49.4 388c-11.7-29.5-9-99.5-9-132.1s-2.6-102.7 9-132.1A75.6 75.6 0 0 1 92 81.2c29.5-11.7 99.5-9 132.1-9s102.7-2.6 132.1 9a75.6 75.6 0 0 1 42.6 42.6c11.7 29.5 9 99.5 9 132.1s2.7 102.7-9 132.1z"/>
  </symbol>
  <symbol id="social-itchio" viewBox="0 0 512 512">
    <path d="M72 34.8c-21.8 12.9-64.6 62-65 75V131c0 27 25.3 50.8 48.3 50.8a50.8 50.8 0 0 0 50.5-50c0 27.1 22.2 50 49.7 50s49-22.8 49-50c0 27.1 23.6 50 51.2 50h.5a51.3 51.3 0 0 0 51.2-50c0 27.1 21.4 50 49 50s49.7-22.8 49.7-50c0 27.1 23 50 50.6 50 23 0 48.2-23.8 48.2-50.8v-21.4c-.4-12.9-43.2-62-64.9-75-67.4-2.3-114.2-2.7-184-2.7S91.1 33.1 72 34.8zm132.2 134.4a57.7 57.7 0 0 1-99.8.2c-13.2 23.1-43.2 32-56 27.7-3.9 40.1-13.7 237.1 17.7 269.1 80 18.7 302.1 18.1 379.8 0 31.6-32.3 21.3-232 17.7-269.1-12.9 4.4-42.9-4.6-56-27.7a57.7 57.7 0 0 1-99.8-.2c-7.1 12.5-23 29-51.8 29a57.5 57.5 0 0 1-51.7-29zm-41.5 53.7c16.4 0 31 0 49.2 19.8a437 437 0 0 1 88.2 0c18.1-19.7 32.8-19.7 49.2-19.7 52.3 0 65.2 77.5 83.9 144.4 17.2 62.2-5.5 63.7-34 63.8-42.1-1.6-65.5-32.2-65.5-62.8a530.6 530.6 0 0 1-155.5 0c0 30.6-23.3 61.2-65.5 62.8-28.4 0-51.2-1.6-34-63.7 18.7-67 31.6-144.5 84-144.5zm93.3 47.9s-44.4 40.8-52.4 55.2l29-1.2v25.3c0 1.6 21.4.2 23.4.2 11.6.5 23.3 1 23.3-.2V325l29 1.1c-8-14.4-52.4-55.2-52.4-55.2z"/>
  </symbol>
  <symbol id="social-lightbulb" viewBox="0 0 384 512">
    <path d="M272 384c9.6-31.9 29.5-59.1 49.2-86.2 5.2-7.1 10.4-14.2 15.4-21.4a176 176 0 1 0-289.2-.1c5 7.2 10.2 14.3 15.4 21.4 19.8 27.1 39.7 54.4 49.2 86.2h160zm-80 128a80 80 0 0 0 80-80v-16H112v16a80 80 0 0 0 80 80zm-80-336c0 8.8-7.2 16-16 16s-16-7.2-16-16A112 112 0 0 1 192 64c8.8 0 16 7.2 16 16s-7.2 16-16 16a80 80 0 0 0-80 80z"/>
  </symbol>
  <symbol id="social-mastodon" viewBox="0 0 448 512">
    <path d="M433 179.1c0-97.2-63.7-125.7-63.7-125.7-62.5-28.7-228.6-28.4-290.5 0 0 0-63.7 28.5-63.7 125.7 0 115.7-6.6 259.4 105.6 289.1 40.5 10.7 75.3 13 103.3 11.4 50.9-2.8 79.4-18 79.4-18l-1.7-37s-36.3 11.4-77.1 10.1c-40.5-1.4-83-4.4-89.7-54a102.5 102.5 0 0 1-.9-13.9c85.7 21 158.7 9.1 178.8 6.7 56-6.7 105-41.3 111.2-72.9 9.8-49.8 9-121.5 9-121.5zm-75.1 125.2h-46.6V190.1c0-49.7-64-51.6-64 7v62.4h-46.4V197c0-58.5-64-56.6-64-6.9v114.2H90.2c0-122.1-5.2-147.9 18.4-175 25.9-28.9 79.8-30.8 103.8 6.1l11.6 19.5 11.6-19.5c24.1-37.1 78.2-34.8 103.9-6.1 23.7 27.3 18.4 53 18.4 175z"/>
  </symbol>
  <symbol id="social-rss" viewBox="0 0 448 512">
    <path d="M64 32A64 64 0 0 0 0 96v320a64 64 0 0 0 64 64h320a64 64 0 0 0 64-64V96a64 64 0 0 0-64-64H64zm32 104a24 24 0 0 1 24-24c137 0 248 111 248 248a24 24 0 1 1-48 0 200 200 0 0 0-200-200 24 24 0 0 1-24-24zm0 96a24 24 0 0 1 24-24 152 152 0 0 1 152 152 24 24 0 1 1-48 0 104 104 0 0 0-104-104 24 24 0 0 1-24-24zm0 120a32 32 0 1 1 64 0 32 32 0 1 1-64 0z"/>
  </symbol>
  <symbol id="social-search" viewBox="0 0 512 512">
    <path d="M416 208c0 45.9-14.9 88.3-40 122.7l126.6 126.7a32 32 0 0 1-45.3 45.3L330.7 376A208 208 0 1 1 416 208zM208 352a144 144 0 1 0 0-288 144 144 0 1 0 0 288z"/>
  </symbol>
  <symbol id="social-steam" viewBox="0 0 496 512">
    <path d="M496 256c0 137-111.2 248-248.4 248a248.2 248.2 0 0 1-239-180.4l95.2 39.3a70.4 70.4 0 0 0 139.1-17.1l84.5-60.2a93.7 93.7 0 0 0 95.8-93.5 93.7 93.7 0 0 0-187.4 0v1.2L176.6 279a70 70 0 0 0-43.5 12.1L0 236.1A248.2 248.2 0 0 1 247.6 8C384.8 8 496 119 496 256zM155.7 384.3l-30.5-12.6a52.8 52.8 0 0 0 27.2 25.8 52.8 52.8 0 0 0 69.1-68.7 52.6 52.6 0 0 0-67.4-29.2l31.5 13a38.9 38.9 0 0 1-29.9 71.7zm173.8-129.9c-34.4 0-62.4-28-62.4-62.3a62.5 62.5 0 0 1 124.8 0 62.4 62.4 0 0 1-62.4 62.3zm.1-15.6a46.9 46.9 0 1 0 0-93.8 46.9 46.9 0 0 0 0 93.8z"/>
  </symbol>
  <symbol id="social-threads" viewBox="0 0 448 512">
    <path d="m345.4 237.3-6.7-3c-4-72.9-43.7-114.6-110.5-115h-1c-39.9 0-73.1 17-93.6 48.1l36.7 25.2c15.3-23.2 39.3-28.1 57-28.1h.6c22 .1 38.6 6.5 49.3 19A75 75 0 0 1 293 221a281.1 281.1 0 0 0-63.2-3c-63.5 3.6-104.3 40.6-101.6 92.1a79.4 79.4 0 0 0 36.6 63.3 113 113 0 0 0 68.2 17c33.2-1.8 59.3-14.4 77.4-37.6 13.9-17.6 22.6-40.4 26.4-69.2a81.6 81.6 0 0 1 34 37.3A93 93 0 0 1 348 423.2c-30.2 30.2-66.5 43.2-121.3 43.6-60.8-.4-106.8-20-136.7-58-28-35.6-42.5-87-43-152.8.5-65.8 15-117.2 43-152.8 29.9-38 75.9-57.6 136.7-58 61.3.4 108 20 139.1 58.2a189.4 189.4 0 0 1 34.3 69.8l43-11.5A233 233 0 0 0 400 74.6c-39.8-49-98-74-173-74.6h-.3C151.6.5 94 25.7 55.4 74.9 21 118.6 3.3 179.5 2.7 255.9v.2c.6 76.3 18.3 137.2 52.7 181 38.7 49 96.3 74.3 171.2 74.8h.3c66.5-.5 113.4-17.9 152-56.5a138.5 138.5 0 0 0 32.5-152.7c-12-27.9-34.8-50.5-66-65.5Zm-114.9 108c-27.8 1.6-56.8-10.9-58.2-37.6-1-19.9 14.1-42 60-44.7a217.6 217.6 0 0 1 61.8 4.3c-5.4 65.9-36.3 76.6-63.6 78Z"/>
  </symbol>
  <symbol id="social-tiktok" viewBox="0 0 448 512">
    <path d="M448 210a210 210 0 0 1-122.8-39.3v178.7a162.6 162.6 0 1 1-140.2-161v89.8a74.6 74.6 0 1 0 52.2 71.2V0h88a121.2 121.2 0 0 0 1.9 22.2 122.2 122.2 0 0 0 53.9 80.2 121.4 121.4 0 0 0 67 20.1Z"/>
  </symbol>
  <symbol id="social-twitch" viewBox="0 0 512 512">
    <path d="M391.2 103.5h-38.7v109.7h38.7ZM285 103h-38.6v109.8H285ZM120.8 0 24.3 91.4v329.2h115.8V512l96.6-91.4h77.2L487.7 256V0Zm328.3 237.8-77.3 73h-77.2l-67.6 64v-64h-86.9V36.7h309Z"/>
  </symbol>
  <symbol id="social-twitter" viewBox="0 0 512 512">
    <path d="M459.4 151.7c.3 4.6.3 9.1.3 13.7 0 138.7-105.6 298.5-298.6 298.5A296.5 296.5 0 0 1 0 417a217 217 0 0 0 25.3 1.2c49 0 94.3-16.6 130.3-44.8-46.1-1-84.8-31.2-98.1-72.8a111 111 0 0 0 47.4-2 105 105 0 0 1-84.1-103v-1.2c14 7.8 30.2 12.6 47.4 13.3A104.9 104.9 0 0 1 35.7 67.2a298.3 298.3 0 0 0 216.4 109.9 104.9 104.9 0 0 1 179-95.8 206.6 206.6 0 0 0 66.6-25.4 104.7 104.7 0 0 1-46.1 57.8c21-2.3 41.6-8.1 60.4-16.2a225.6 225.6 0 0 1-52.6 54.2z"/>
  </symbol>
  <symbol id="social-youtube" viewBox="0 0 576 512">
    <path d="M549.7 124a68.6 68.6 0 0 0-48.3-48.5C458.8 64 288 64 288 64S117.2 64 74.6 75.5c-23.5 6.3-42 25-48.3 48.6C15 167 15 256.4 15 256.4s0 89.4 11.4 132.3a67.6 67.6 0 0 0 48.3 47.8C117.2 448 288 448 288 448s170.8 0 213.4-11.5a67.6 67.6 0 0 0 48.3-47.8C561 345.8 561 256.4 561 256.4s0-89.5-11.4-132.3zM232 337.7V175.2L375 256.4 232 337.6z"/>
  </symbol>
</svg>
